<mxfile host="app.diagrams.net" modified="2021-11-17T19:51:44.382Z" agent="5.0 (Windows NT 10.0; Win64; x64) AppleWebKit/537.36 (KHTML, like Gecko) Chrome/94.0.4606.85 YaBrowser/21.11.0.1996 Yowser/2.5 Safari/537.36" etag="Boh9oImTssJP3RE6ecWJ" version="15.8.1" type="github">
  <diagram id="3Rl8tJcSyYSh5Y90n7Nx" name="Page-1">
    <mxGraphModel dx="981" dy="544" grid="1" gridSize="10" guides="1" tooltips="1" connect="1" arrows="1" fold="1" page="1" pageScale="1" pageWidth="827" pageHeight="1169" math="0" shadow="0">
      <root>
        <mxCell id="0" />
        <mxCell id="1" parent="0" />
        <mxCell id="dhNhgRC3SvR5MSYjVpv3-27" style="edgeStyle=orthogonalEdgeStyle;rounded=1;orthogonalLoop=1;jettySize=auto;html=1;entryX=0;entryY=0.5;entryDx=0;entryDy=0;endArrow=none;endFill=0;" edge="1" parent="1" source="dhNhgRC3SvR5MSYjVpv3-3" target="dhNhgRC3SvR5MSYjVpv3-25">
          <mxGeometry relative="1" as="geometry" />
        </mxCell>
        <mxCell id="dhNhgRC3SvR5MSYjVpv3-3" value="Заказчик" style="rounded=1;whiteSpace=wrap;html=1;fillColor=#f8cecc;strokeColor=#b85450;" vertex="1" parent="1">
          <mxGeometry x="150" y="100" width="120" height="60" as="geometry" />
        </mxCell>
        <mxCell id="dhNhgRC3SvR5MSYjVpv3-26" style="edgeStyle=orthogonalEdgeStyle;rounded=1;orthogonalLoop=1;jettySize=auto;html=1;entryX=0.96;entryY=0.485;entryDx=0;entryDy=0;entryPerimeter=0;endArrow=none;endFill=0;" edge="1" parent="1" source="dhNhgRC3SvR5MSYjVpv3-4" target="dhNhgRC3SvR5MSYjVpv3-25">
          <mxGeometry relative="1" as="geometry" />
        </mxCell>
        <mxCell id="dhNhgRC3SvR5MSYjVpv3-4" value="Прораб" style="rounded=1;whiteSpace=wrap;html=1;fillColor=#d5e8d4;strokeColor=#82b366;" vertex="1" parent="1">
          <mxGeometry x="470" y="100" width="120" height="60" as="geometry" />
        </mxCell>
        <mxCell id="dhNhgRC3SvR5MSYjVpv3-5" value="Рабочий" style="rounded=1;whiteSpace=wrap;html=1;fillColor=#fff2cc;strokeColor=#d6b656;" vertex="1" parent="1">
          <mxGeometry x="320" y="260" width="120" height="60" as="geometry" />
        </mxCell>
        <mxCell id="dhNhgRC3SvR5MSYjVpv3-6" value="Дизайнер" style="rounded=1;whiteSpace=wrap;html=1;fillColor=#f5f5f5;fontColor=#333333;strokeColor=#666666;" vertex="1" parent="1">
          <mxGeometry x="530" y="280" width="120" height="60" as="geometry" />
        </mxCell>
        <mxCell id="dhNhgRC3SvR5MSYjVpv3-18" style="edgeStyle=orthogonalEdgeStyle;rounded=1;orthogonalLoop=1;jettySize=auto;html=1;endArrow=none;endFill=0;" edge="1" parent="1" source="dhNhgRC3SvR5MSYjVpv3-7" target="dhNhgRC3SvR5MSYjVpv3-3">
          <mxGeometry relative="1" as="geometry">
            <Array as="points">
              <mxPoint x="140" y="30" />
              <mxPoint x="140" y="130" />
            </Array>
          </mxGeometry>
        </mxCell>
        <mxCell id="dhNhgRC3SvR5MSYjVpv3-7" value="ФИО" style="rounded=0;whiteSpace=wrap;html=1;fillColor=#f8cecc;strokeColor=#b85450;" vertex="1" parent="1">
          <mxGeometry x="15" y="20" width="120" height="20" as="geometry" />
        </mxCell>
        <mxCell id="dhNhgRC3SvR5MSYjVpv3-17" style="edgeStyle=orthogonalEdgeStyle;rounded=1;orthogonalLoop=1;jettySize=auto;html=1;endArrow=none;endFill=0;" edge="1" parent="1" source="dhNhgRC3SvR5MSYjVpv3-8" target="dhNhgRC3SvR5MSYjVpv3-3">
          <mxGeometry relative="1" as="geometry">
            <Array as="points">
              <mxPoint x="140" y="65" />
              <mxPoint x="140" y="130" />
            </Array>
          </mxGeometry>
        </mxCell>
        <mxCell id="dhNhgRC3SvR5MSYjVpv3-8" value="Паспортные данные" style="rounded=0;whiteSpace=wrap;html=1;fillColor=#f8cecc;strokeColor=#b85450;" vertex="1" parent="1">
          <mxGeometry x="15" y="50" width="120" height="30" as="geometry" />
        </mxCell>
        <mxCell id="dhNhgRC3SvR5MSYjVpv3-16" style="edgeStyle=orthogonalEdgeStyle;rounded=1;orthogonalLoop=1;jettySize=auto;html=1;endArrow=none;endFill=0;" edge="1" parent="1" source="dhNhgRC3SvR5MSYjVpv3-10" target="dhNhgRC3SvR5MSYjVpv3-3">
          <mxGeometry relative="1" as="geometry">
            <Array as="points">
              <mxPoint x="140" y="100" />
              <mxPoint x="140" y="130" />
            </Array>
          </mxGeometry>
        </mxCell>
        <mxCell id="dhNhgRC3SvR5MSYjVpv3-10" value="Адрес" style="rounded=0;whiteSpace=wrap;html=1;fillColor=#f8cecc;strokeColor=#b85450;" vertex="1" parent="1">
          <mxGeometry x="17.5" y="90" width="115" height="20" as="geometry" />
        </mxCell>
        <mxCell id="dhNhgRC3SvR5MSYjVpv3-15" value="" style="edgeStyle=orthogonalEdgeStyle;rounded=1;orthogonalLoop=1;jettySize=auto;html=1;endArrow=none;endFill=0;" edge="1" parent="1" source="dhNhgRC3SvR5MSYjVpv3-11" target="dhNhgRC3SvR5MSYjVpv3-3">
          <mxGeometry relative="1" as="geometry" />
        </mxCell>
        <mxCell id="dhNhgRC3SvR5MSYjVpv3-11" value="Номер телефона" style="rounded=0;whiteSpace=wrap;html=1;fillColor=#f8cecc;strokeColor=#b85450;" vertex="1" parent="1">
          <mxGeometry x="17.5" y="120" width="115" height="20" as="geometry" />
        </mxCell>
        <mxCell id="dhNhgRC3SvR5MSYjVpv3-19" style="edgeStyle=orthogonalEdgeStyle;rounded=1;orthogonalLoop=1;jettySize=auto;html=1;entryX=0;entryY=0.5;entryDx=0;entryDy=0;endArrow=none;endFill=0;" edge="1" parent="1" source="dhNhgRC3SvR5MSYjVpv3-12" target="dhNhgRC3SvR5MSYjVpv3-3">
          <mxGeometry relative="1" as="geometry">
            <Array as="points">
              <mxPoint x="140" y="160" />
              <mxPoint x="140" y="130" />
            </Array>
          </mxGeometry>
        </mxCell>
        <mxCell id="dhNhgRC3SvR5MSYjVpv3-12" value="Почта" style="rounded=0;whiteSpace=wrap;html=1;fillColor=#f8cecc;strokeColor=#b85450;" vertex="1" parent="1">
          <mxGeometry x="15" y="150" width="120" height="20" as="geometry" />
        </mxCell>
        <mxCell id="dhNhgRC3SvR5MSYjVpv3-28" style="edgeStyle=orthogonalEdgeStyle;rounded=1;orthogonalLoop=1;jettySize=auto;html=1;exitX=0;exitY=0.5;exitDx=0;exitDy=0;entryX=1;entryY=0.5;entryDx=0;entryDy=0;endArrow=none;endFill=0;" edge="1" parent="1" source="dhNhgRC3SvR5MSYjVpv3-20" target="dhNhgRC3SvR5MSYjVpv3-4">
          <mxGeometry relative="1" as="geometry">
            <Array as="points">
              <mxPoint x="600" y="30" />
              <mxPoint x="600" y="130" />
            </Array>
          </mxGeometry>
        </mxCell>
        <mxCell id="dhNhgRC3SvR5MSYjVpv3-20" value="ФИО" style="rounded=0;whiteSpace=wrap;html=1;fillColor=#d5e8d4;strokeColor=#82b366;" vertex="1" parent="1">
          <mxGeometry x="610" y="20" width="120" height="20" as="geometry" />
        </mxCell>
        <mxCell id="dhNhgRC3SvR5MSYjVpv3-29" style="edgeStyle=orthogonalEdgeStyle;rounded=1;orthogonalLoop=1;jettySize=auto;html=1;exitX=0;exitY=0.5;exitDx=0;exitDy=0;endArrow=none;endFill=0;" edge="1" parent="1" source="dhNhgRC3SvR5MSYjVpv3-21">
          <mxGeometry relative="1" as="geometry">
            <mxPoint x="590" y="130" as="targetPoint" />
            <Array as="points">
              <mxPoint x="600" y="65" />
              <mxPoint x="600" y="130" />
            </Array>
          </mxGeometry>
        </mxCell>
        <mxCell id="dhNhgRC3SvR5MSYjVpv3-21" value="Паспортные данные" style="rounded=0;whiteSpace=wrap;html=1;fillColor=#d5e8d4;strokeColor=#82b366;" vertex="1" parent="1">
          <mxGeometry x="610" y="50" width="120" height="30" as="geometry" />
        </mxCell>
        <mxCell id="dhNhgRC3SvR5MSYjVpv3-30" style="edgeStyle=orthogonalEdgeStyle;rounded=1;orthogonalLoop=1;jettySize=auto;html=1;exitX=0;exitY=0.5;exitDx=0;exitDy=0;entryX=1;entryY=0.5;entryDx=0;entryDy=0;endArrow=none;endFill=0;" edge="1" parent="1" source="dhNhgRC3SvR5MSYjVpv3-22" target="dhNhgRC3SvR5MSYjVpv3-4">
          <mxGeometry relative="1" as="geometry">
            <Array as="points">
              <mxPoint x="600" y="100" />
              <mxPoint x="600" y="130" />
            </Array>
          </mxGeometry>
        </mxCell>
        <mxCell id="dhNhgRC3SvR5MSYjVpv3-22" value="Адрес" style="rounded=0;whiteSpace=wrap;html=1;fillColor=#d5e8d4;strokeColor=#82b366;" vertex="1" parent="1">
          <mxGeometry x="612.5" y="90" width="115" height="20" as="geometry" />
        </mxCell>
        <mxCell id="dhNhgRC3SvR5MSYjVpv3-31" style="edgeStyle=orthogonalEdgeStyle;rounded=1;orthogonalLoop=1;jettySize=auto;html=1;exitX=0;exitY=0.5;exitDx=0;exitDy=0;endArrow=none;endFill=0;" edge="1" parent="1" source="dhNhgRC3SvR5MSYjVpv3-23">
          <mxGeometry relative="1" as="geometry">
            <mxPoint x="590" y="129.79310344827593" as="targetPoint" />
          </mxGeometry>
        </mxCell>
        <mxCell id="dhNhgRC3SvR5MSYjVpv3-23" value="Номер телефона" style="rounded=0;whiteSpace=wrap;html=1;fillColor=#d5e8d4;strokeColor=#82b366;" vertex="1" parent="1">
          <mxGeometry x="612.5" y="120" width="115" height="20" as="geometry" />
        </mxCell>
        <mxCell id="dhNhgRC3SvR5MSYjVpv3-32" style="edgeStyle=orthogonalEdgeStyle;rounded=1;orthogonalLoop=1;jettySize=auto;html=1;exitX=0;exitY=0.5;exitDx=0;exitDy=0;endArrow=none;endFill=0;" edge="1" parent="1" source="dhNhgRC3SvR5MSYjVpv3-24">
          <mxGeometry relative="1" as="geometry">
            <mxPoint x="590" y="130" as="targetPoint" />
            <Array as="points">
              <mxPoint x="600" y="160" />
              <mxPoint x="600" y="130" />
            </Array>
          </mxGeometry>
        </mxCell>
        <mxCell id="dhNhgRC3SvR5MSYjVpv3-24" value="Почта" style="rounded=0;whiteSpace=wrap;html=1;fillColor=#d5e8d4;strokeColor=#82b366;" vertex="1" parent="1">
          <mxGeometry x="610" y="150" width="120" height="20" as="geometry" />
        </mxCell>
        <mxCell id="dhNhgRC3SvR5MSYjVpv3-25" value="Оформить договор" style="rhombus;whiteSpace=wrap;html=1;" vertex="1" parent="1">
          <mxGeometry x="310" y="100" width="130" height="60" as="geometry" />
        </mxCell>
      </root>
    </mxGraphModel>
  </diagram>
</mxfile>
